<svg width="25" height="25" viewBox="0 0 25 25" fill="current" xmlns="http://www.w3.org/2000/svg">
    <path fill-rule="evenodd" clip-rule="evenodd" d="M0.608059 0.660334C0.997903 0.271809 1.52635 0.0535781 2.07733 0.0535781C2.62831 0.0535781 3.15677 0.271809 3.54661 0.660334L12.4732 9.56775L21.3997 0.660334C21.59 0.456495 21.8196 0.293003 22.0746 0.179607C22.3297 0.0662123 22.605 0.00523796 22.8842 0.000322883C23.1633 -0.0045922 23.4406 0.0466521 23.6995 0.150999C23.9584 0.255346 24.1936 0.410657 24.391 0.607668C24.5885 0.804679 24.7441 1.03935 24.8487 1.29769C24.9532 1.55603 25.0046 1.83274 24.9997 2.11131C24.9948 2.38988 24.9336 2.66461 24.82 2.9191C24.7064 3.1736 24.5425 3.40265 24.3382 3.59259L15.4117 12.5L24.3382 21.4074C24.5425 21.5974 24.7064 21.8264 24.82 22.0809C24.9336 22.3354 24.9948 22.6101 24.9997 22.8887C25.0046 23.1673 24.9532 23.444 24.8487 23.7023C24.7441 23.9606 24.5885 24.1953 24.391 24.3923C24.1936 24.5893 23.9584 24.7447 23.6995 24.849C23.4406 24.9533 23.1633 25.0046 22.8842 24.9997C22.605 24.9948 22.3297 24.9338 22.0746 24.8204C21.8196 24.707 21.59 24.5435 21.3997 24.3397L12.4732 15.4323L3.54661 24.3397C3.15247 24.7061 2.63116 24.9057 2.09252 24.8962C1.55387 24.8867 1.03995 24.6689 0.659007 24.2888C0.278068 23.9087 0.0598614 23.3959 0.0503577 22.8584C0.0408539 22.3209 0.240795 21.8007 0.608059 21.4074L9.5346 12.5L0.608059 3.59259C0.218699 3.20358 0 2.67626 0 2.12646C0 1.57666 0.218699 1.04934 0.608059 0.660334Z" fill="current"/>
</svg>
