<svg className="navbar__logo" width="64" height="64" viewBox="0 0 64 64" fill="current" xmlns="http://www.w3.org/2000/svg">
    <path className="navbar__logo" d="M13 15.6001C14.5 14.1001 18.8 17.5001 20.8 19.5001C22.8 21.5001 21.8 24.9001 20.6 23.6001C19.1 21.9001 15.3 16.6001 13.9 17.2001C12.5 17.8001 8.79999 23.2001 4.79999 31.2001L1.89999 32.2001C1.99999 32.2001 6.49999 22.1001 13 15.6001Z" fill="current"/>
    <path className="navbar__logo" d="M51 15.6001C49.5 14.1001 45.2 17.5001 43.2 19.5001C41.2 21.5001 42.2 24.9001 43.4 23.6001C44.9 21.9001 48.7 16.6001 50.1 17.2001C51.5 17.8001 55.2 23.2001 59.2 31.2001L62.1 32.2001C62 32.2001 57.5 22.1001 51 15.6001Z" fill="current"/>
    <path className="navbar__logo" d="M59.9 31.0001C58.9 30.9001 55.6 30.7001 51.7 30.7001C47.2 30.7001 43.6 31.3001 40.1 31.9001C36.6 32.5001 34.3 32.9001 32 32.9001C29.7 32.9001 27.4 32.5001 23.9 31.9001C20.4 31.3001 16.8 30.7001 12.3 30.7001C8.4 30.7001 5.1 30.9001 4.1 31.0001C2 31.3001 2 31.3001 2 33.5001C2 36.8001 2.4 37.4001 2.5 37.6001C2.7 37.9001 3.3 38.2001 3.5 38.5001C3.8 38.9001 3.9 40.2001 4 40.9001C5.1 46.7001 6.7 48.7001 15.4 48.7001C23.6 48.7001 27.6 46.3001 29.2 40.4001C29.3 40.0001 29.5 38.1001 29.6 37.6001C29.6 37.4001 29.8 37.2001 30.2 37.1001C30.8 37.0001 31.3 37.0001 31.8 37.0001C32.3 37.0001 32.8 37.0001 33.4 37.1001C33.8 37.2001 34 37.4001 34 37.6001C34.1 38.0001 34.3 39.9001 34.4 40.4001C35.9 46.3001 40 48.7001 48.2 48.7001C57 48.7001 58.5 46.7001 59.6 40.9001C59.7 40.2001 59.8 38.9001 60.1 38.5001C60.3 38.2001 60.9 37.9001 61.1 37.6001C61.3 37.4001 61.6 36.8001 61.6 33.5001C62 31.3001 62 31.3001 59.9 31.0001ZM27.8 38.2001C27.7 38.7001 27.6 39.2001 27.4 39.9001C26.3 44.0001 23.9 46.7001 15.6 46.7001C7.6 46.7001 6.9 45.0001 6.1 40.4001C5.8 38.7001 5.2 36.8001 5.9 35.1001C6.3 34.2001 6.9 32.9001 9.3 32.9001C11 32.9001 19.4 33.0001 24.6 34.1001C26 34.6001 28.5 35.1001 27.8 38.2001ZM57.9 40.5001C57.1 45.1001 56.4 46.8001 48.4 46.8001C40.1 46.8001 37.7 44.1001 36.6 40.0001C36.4 39.3001 36.3 38.7001 36.2 38.3001C35.6 35.3001 38 34.7001 39.5 34.4001C44.7 33.3001 53.1 33.2001 54.8 33.2001C57.1 33.2001 57.8 34.5001 58.2 35.4001C58.8 36.8001 58.2 38.7001 57.9 40.5001Z" fill="current"/>
</svg>
